HIERARCHY
ROOT Hips
{
	OFFSET 0.000000 0.000000 0.000000 
	CHANNELS 6 Xposition Yposition Zposition Zrotation Yrotation Xrotation
	JOINT LeftUpLeg
	{
		OFFSET 1.363060 -1.794630 0.839290 
		CHANNELS 3 Zrotation Yrotation Xrotation
		JOINT LeftLeg
		{
			OFFSET 2.448110 -6.726130 0.000000 
			CHANNELS 3 Zrotation Yrotation Xrotation
			JOINT LeftFoot
			{
				OFFSET 2.562200 -7.039590 0.000000 
				CHANNELS 3 Zrotation Yrotation Xrotation
				JOINT LeftToeBase
				{
					OFFSET 0.157640 -0.433110 2.322550 
					CHANNELS 3 Zrotation Yrotation Xrotation
					End Site
					{
						OFFSET 0.000000 0.000000 0.000000 
					}
				}
			}
		}
	}
	JOINT RightUpLeg
	{
		OFFSET -1.305520 -1.794630 0.839290 
		CHANNELS 3 Zrotation Yrotation Xrotation
		JOINT RightLeg
		{
			OFFSET -2.542530 -6.985550 0.000000 
			CHANNELS 3 Zrotation Yrotation Xrotation
			JOINT RightFoot
			{
				OFFSET -2.568260 -7.056230 0.000000 
				CHANNELS 3 Zrotation Yrotation Xrotation
				JOINT RightToeBase
				{
					OFFSET -0.164730 -0.452590 2.363150 
					CHANNELS 3 Zrotation Yrotation Xrotation
					End Site
					{
						OFFSET 0.000000 0.000000 0.000000 
					}
				}
			}
		}
	}
	JOINT Spine
	{
		OFFSET 0.028270 2.035590 -0.193380 
		CHANNELS 3 Zrotation Yrotation Xrotation
		JOINT Spine1
		{
			OFFSET 0.056720 2.048850 -0.042750 
			CHANNELS 3 Zrotation Yrotation Xrotation
			JOINT Neck1
			{
				OFFSET -0.054170 1.746240 0.172020 
				CHANNELS 3 Zrotation Yrotation Xrotation
				JOINT Head
				{
					OFFSET 0.104070 1.761360 -0.123970 
					CHANNELS 3 Zrotation Yrotation Xrotation
					End Site
					{
						OFFSET 0.000000 0.000000 0.000000 
					}
				}
			}
			JOINT LeftArm
			{
				OFFSET 3.362410 1.200890 -0.311210 
				CHANNELS 3 Zrotation Yrotation Xrotation
				JOINT LeftForeArm
				{
					OFFSET 4.983000 -0.000000 -0.000000 
					CHANNELS 3 Zrotation Yrotation Xrotation
					JOINT LeftHand
					{
						OFFSET 3.483560 -0.000000 -0.000000 
						CHANNELS 3 Zrotation Yrotation Xrotation
						JOINT LeftHandIndex1
						{
							OFFSET 0.715260 -0.000000 -0.000000 
							CHANNELS 3 Zrotation Yrotation Xrotation
							End Site
							{
								OFFSET 0.000000 0.000000 0.000000 
							}
						}
					}
				}
			}
			JOINT RightArm
			{
				OFFSET -3.136600 1.374050 -0.404650 
				CHANNELS 3 Zrotation Yrotation Xrotation
				JOINT RightForeArm
				{
					OFFSET -5.241900 -0.000000 -0.000000 
					CHANNELS 3 Zrotation Yrotation Xrotation
					JOINT RightHand
					{
						OFFSET -3.444170 -0.000000 -0.000000 
						CHANNELS 3 Zrotation Yrotation Xrotation
						JOINT RightHandIndex1
						{
							OFFSET -0.622530 -0.000000 -0.000000 
							CHANNELS 3 Zrotation Yrotation Xrotation
							End Site
							{
								OFFSET 0.000000 0.000000 0.000000 
							}
						}
					}
				}
			}
		}
	}
}
MOTION
Frames: 7
Frame Time: 0.041667
7.909659 11.991795 15.106482 -169.537767 9.949707 163.073960 -88.225350 -4.452335 24.994648 21.387617 10.209301 77.927403 4.412937 2.133164 -59.782942 1.576400 -7.921600 -22.476300 100.929168 32.961401 3.147043 -20.083457 -10.132696 76.231159 -3.152960 5.175142 -58.506347 -0.574000 -4.851600 13.485800 50.671455 -28.885083 68.013464 -23.608500 -10.273264 -47.895074 27.470895 -9.896932 34.537433 3.369300 -1.634500 3.413900 127.286095 -34.044861 -118.363837 53.165188 -27.072502 -8.164029 19.397459 -0.465675 10.169538 -7.125000 0.000000 0.000000 -137.231960 28.102069 -128.310484 -61.073313 37.328395 -10.048344 -18.256662 -17.813268 -18.265669 7.125000 0.000000 0.000000 
7.918515 11.984620 15.081143 -169.503067 10.613708 162.204240 -87.670574 -4.436002 25.176190 21.385896 10.229329 78.549322 4.267523 1.963815 -59.433964 1.850900 -8.548300 -24.392400 101.226440 30.733416 4.524050 -19.909430 -10.258749 75.819547 -2.853717 6.034565 -58.428515 -0.595200 -4.939000 13.734500 46.616578 -27.833896 71.268127 -22.405262 -10.135072 -49.079697 27.998104 -10.374170 36.705546 3.324700 -1.599500 3.570200 128.117198 -33.391715 -120.002158 53.393931 -27.563336 -8.054692 19.026749 -0.837911 11.366169 -7.125000 0.000000 0.000000 -136.825251 28.448447 -127.993109 -61.123223 37.431348 -10.117607 -18.254763 -17.964700 -18.555187 7.125000 0.000000 0.000000 
7.926142 11.979449 15.055029 -167.604397 10.322346 162.367911 -87.205881 -4.927149 25.023715 21.410297 10.042816 79.462548 4.072443 1.840686 -59.004472 2.084100 -9.039200 -25.917900 101.412876 28.102482 5.645160 -19.645972 -10.543792 75.199730 -2.407117 7.282645 -58.440224 -0.631400 -5.084200 14.148700 56.905661 -29.152370 61.661818 -26.090819 -11.085128 -46.560626 27.226446 -11.095575 40.397069 3.219400 -1.677700 3.570900 128.277768 -34.179967 -120.867288 53.278528 -28.421159 -8.037552 18.678466 -1.027088 12.355198 -7.125000 0.000000 0.000000 -137.386542 28.642821 -128.376058 -60.728826 37.104432 -10.140615 -18.295800 -17.985002 -18.258802 7.125000 0.000000 0.000000 
7.935386 11.979320 15.027364 -166.710013 10.210826 162.629947 -87.167329 -5.916342 24.466983 21.475339 10.055906 80.463169 4.186427 2.170463 -58.507167 2.076200 -9.023000 -25.867200 101.388569 26.318165 6.408438 -19.370211 -10.645437 74.803291 -1.714877 8.814619 -58.287948 -0.610500 -5.001000 13.911500 62.846843 -29.374671 56.176947 -27.929885 -11.347111 -44.769449 24.251536 -10.057832 38.788876 3.009500 -1.722800 3.283400 128.080046 -34.501247 -121.521823 53.465731 -29.137212 -8.015280 18.267072 -1.060758 13.079846 -7.125000 0.000000 0.000000 -137.864110 28.288327 -129.563043 -60.397371 36.989320 -10.146143 -18.476078 -17.738792 -17.216963 7.125000 0.000000 0.000000 
7.946504 11.979902 14.997048 -170.417845 12.503411 160.540729 -87.117517 -6.553478 23.934912 21.480668 10.359810 81.243618 4.317510 2.293448 -57.969952 2.012600 -8.892300 -25.458900 101.435780 24.849671 7.832862 -19.171853 -10.359289 74.782107 -0.994640 10.240894 -57.885000 -0.615100 -5.019400 13.963800 34.305839 -23.564037 81.800402 -17.556776 -8.375893 -51.311964 21.560992 -9.200570 37.232684 2.930100 -1.721200 3.964000 128.431765 -32.535748 -122.631821 55.487166 -27.961547 -7.655058 17.813587 -1.519710 13.993696 -7.125000 0.000000 0.000000 -137.004198 27.764243 -130.710930 -61.789180 37.532827 -10.013748 -18.727024 -17.197049 -16.200379 7.125000 0.000000 0.000000 
7.956393 11.980290 14.966086 -170.527069 12.485707 160.834603 -87.358332 -8.316234 22.639919 21.508106 10.397451 82.483516 4.343701 2.386592 -57.331358 1.973400 -8.810500 -25.204500 101.388186 23.930447 8.327432 -18.932942 -10.361879 74.611763 -0.277527 11.673939 -57.581821 -0.767500 -5.594400 15.612000 34.464130 -23.510134 81.329004 -17.721002 -8.381956 -51.438461 22.492237 -9.916050 40.011732 2.970200 -1.726500 4.105000 128.324776 -32.604588 -121.974340 55.255997 -27.943067 -7.652362 17.823519 -1.422793 13.592661 -7.125000 0.000000 0.000000 -137.283087 27.710337 -131.066777 -61.714318 37.675215 -10.032650 -18.763278 -17.101504 -16.190673 7.125000 0.000000 0.000000 
7.965572 11.982487 14.930858 -169.221993 12.030355 161.398013 -87.270717 -10.062455 21.418271 21.465302 10.357942 84.049054 4.038667 1.816578 -56.272927 2.134600 -9.141000 -26.237500 101.363548 22.430352 8.978341 -18.678837 -10.568363 74.156813 0.342146 12.992371 -57.270155 -1.127700 -6.744900 18.961800 43.108781 -26.546377 74.137619 -20.940971 -9.784010 -49.814879 23.632699 -10.671945 42.700130 3.008000 -1.731900 4.022100 128.160233 -33.329553 -121.533674 54.630650 -28.479208 -7.732314 17.835430 -1.333940 13.436370 -7.125000 0.000000 0.000000 -137.980426 27.576523 -131.631169 -61.290519 37.649369 -10.076392 -18.799901 -17.045733 -15.926207 7.125000 0.000000 0.000000 
